<svg width="24" height="24" viewBox="0 0 24 24" fill="none" xmlns="http://www.w3.org/2000/svg">
<path d="M22.3373 2.212C22.4526 2.08015 22.5408 1.92689 22.5969 1.76095C22.653 1.59502 22.6758 1.41966 22.6641 1.2449C22.6524 1.07014 22.6064 0.899401 22.5287 0.742421C22.451 0.585442 22.3432 0.445301 22.2113 0.33C22.0795 0.214699 21.9262 0.126497 21.7603 0.0704288C21.5944 0.0143607 21.419 -0.00847517 21.2442 0.00322501C21.0695 0.0149252 20.8987 0.0609325 20.7418 0.13862C20.5848 0.216307 20.4446 0.324153 20.3293 0.456L21.3333 1.33333L22.3373 2.212ZM1.66267 21.7893C1.54737 21.9212 1.45916 22.0744 1.4031 22.2404C1.34703 22.4063 1.32419 22.5817 1.33589 22.7564C1.34759 22.9312 1.3936 23.1019 1.47129 23.2589C1.54897 23.4159 1.65682 23.556 1.78867 23.6713C1.92051 23.7866 2.07378 23.8748 2.23972 23.9309C2.40565 23.987 2.581 24.0098 2.75576 23.9981C2.93052 23.9864 3.10127 23.9404 3.25825 23.8627C3.41523 23.785 3.55537 23.6772 3.67067 23.5453L2.66667 22.6667L1.66267 21.7893ZM1.33333 1.33333V0C1.08572 0 0.842994 0.0689529 0.632359 0.199132C0.421724 0.329312 0.251501 0.515574 0.140764 0.737049C0.030027 0.958523 -0.0168491 1.20646 0.00538823 1.45307C0.0276255 1.69969 0.118098 1.93524 0.266667 2.13333L1.33333 1.33333ZM6.66667 1.33333L7.73334 0.533333C7.60914 0.367739 7.44809 0.233334 7.26295 0.140764C7.07781 0.0481933 6.87366 0 6.66667 0V1.33333ZM22.6667 22.6667V24C22.9143 24 23.157 23.931 23.3676 23.8009C23.5783 23.6707 23.7485 23.4844 23.8592 23.263C23.97 23.0415 24.0169 22.7935 23.9946 22.5469C23.9724 22.3003 23.8819 22.0648 23.7333 21.8667L22.6667 22.6667ZM17.3333 22.6667L16.2667 23.4667C16.3909 23.6323 16.5519 23.7667 16.7371 23.8592C16.9222 23.9518 17.1263 24 17.3333 24V22.6667ZM21.3333 1.33333L20.3293 0.456L12.432 9.48133L13.436 10.3587L14.4387 11.2373L22.3373 2.212L21.3333 1.33333ZM10.564 13.64L9.56133 12.7627L1.66267 21.7893L2.66667 22.6667L3.67067 23.5453L11.568 14.5187L10.564 13.64ZM1.33333 1.33333V2.66667H6.66667V0H1.33333V1.33333ZM6.66667 1.33333L5.6 2.13333L21.6 23.4667L22.6667 22.6667L23.7333 21.8667L7.73334 0.533333L6.66667 1.33333ZM22.6667 22.6667V21.3333H17.3333V24H22.6667V22.6667ZM17.3333 22.6667L18.4 21.8667L2.4 0.533333L1.33333 1.33333L0.266667 2.13333L16.2667 23.4667L17.3333 22.6667Z" fill="#EF84BC"/>
</svg>
